PathFileType	4	(X/Y/Z)	C:/Users/beibeiliu/ov580/test_trc/User3\sequence.40_training_dense_left.trc
DataRate	CameraRate	NumFrames	NumMarkers	Units	OrigDataRate	OrigDataStartFrame	OrigNumFrames
120	120	11	19	mm	120	72	287
Frame#	Time	ThumbCMC			ThumbMCP			ThumbIP			ThumbTip			IndexMCP			IndexPIP			IndexTip			MiddleMCP			MiddlePIP			MiddleTip			RingMCP			RingPIP			RingTip			PinkyMCP			PinkyPIP			PinkyTip			BackHand1			BackHand2			BackHand3	
		X0	Y0	Z0	X1	Y1	Z1	X2	Y2	Z2	X3	Y3	Z3	X4	Y4	Z4	X5	Y5	Z5	X6	Y6	Z6	X7	Y7	Z7	X8	Y8	Z8	X9	Y9	Z9	X10	Y10	Z10	X11	Y11	Z11	X12	Y12	Z12	X13	Y13	Z13	X14	Y14	Z14	X15	Y15	Z15	X16	Y16	Z16	X17	Y17	Z17	X18	Y18	Z18	
71	0.591667	-182.563	0.651535	31.4748	-159.217	5.63223	12.1936	-144.346	7.2939	-14.9686	-129.117	8.30415	-35.4164	-186.073	-11.467	-41.9787	-161.573	-4.22754	-61.1131	-131.191	-1.88572	-60.1683	-195.621	-30.0993	-47.6814	-178.941	-25.2397	-74.3065	-145.102	-20.3343	-91.2257	-191.152	-48.5954	-41.1806	-181.598	-49.3621	-64.3883	-153.509	-45.6863	-85.4158	-184.857	-69.5959	-19.3122	-180.673	-70.7985	-46.8703	-166.053	-66.3345	-70.0362	-206.532	-54.9627	9.10732	-211.333	-56.7785	39.3404	-213.978	-20.1739	23.0123	
72	0.6	-182.217	1.92808	37.0058	-159.83	5.36388	11.5952	-144.04	11.3138	-14.7915	-132.452	5.12748	-35.7789	-186.663	-8.76324	-41.7768	-163.078	-3.8683	-60.3183	-134.355	1.84499	-59.4106	-194.262	-30.4636	-49.9633	-176.025	-27.1082	-75.6957	-147.064	-21.0483	-89.7958	-191.426	-49.0747	-40.2843	-180.13	-46.4963	-67.474	-154.829	-41.2193	-85.1031	-185.763	-64.9931	-20.2458	-181.144	-71.0302	-46.129	-164.998	-69.9912	-69.1151	-207.942	-55.8681	12.1813	-212.421	-55.5011	42.5958	-213.697	-22.8172	25.7197	
73	0.608333	-182.779	0.305925	38.1013	-162.1	2.88998	9.19737	-145.025	7.41488	-18.1218	-131.176	5.7191	-34.7282	-186.442	-4.99834	-38.8311	-160.411	2.06596	-58.2485	-129.118	0.740585	-55.0199	-194.295	-25.7469	-47.063	-178.353	-24.3795	-72.3787	-143.304	-19.448	-88.8809	-192.638	-45.7588	-37.6401	-178.914	-43.6927	-67.2705	-153.153	-41.4804	-83.8573	-187.403	-65.4286	-23.7893	-180.547	-71.7423	-47.4512	-163.898	-63.616	-68.3902	-207.496	-50.7991	9.98395	-210.823	-58.853	37.8316	-213.111	-22.3319	24.0758	
74	0.616667	-182.938	-1.48013	36.6684	-160.178	7.08645	10.1925	-144.569	7.0843	-18.3779	-131.086	5.8769	-35.235	-184.852	-5.24905	-38.764	-159.498	-0.278771	-56.8565	-129.446	4.7364	-53.7288	-193.924	-25.4451	-49.2806	-176.363	-23.3717	-72.6246	-145.995	-15.7591	-87.1662	-192.756	-44.2315	-36.3383	-179.139	-46.1275	-68.0593	-157.311	-42.4976	-80.5025	-186.942	-67.6679	-21.5622	-182.924	-68.905	-43.9082	-166.187	-64.3399	-66.3682	-205.25	-54.5516	13.9524	-213.011	-53.9369	40.9971	-213.223	-20.4887	25.8696	
75	0.625	-182.736	1.70112	35.5206	-160.259	4.84606	9.48224	-145.292	9.31503	-15.4687	-131.258	5.1996	-34.7407	-187.57	-8.37748	-39.7497	-159.889	-1.44824	-58.263	-132.375	6.12889	-55.3474	-194.972	-26.3382	-47.458	-176.892	-24.5576	-72.9386	-141.967	-17.7505	-86.5096	-191.328	-48.4329	-38.9358	-180.566	-43.8179	-65.8725	-151.626	-42.3171	-83.0189	-185.482	-65.7399	-19.6471	-182.578	-72.3269	-44.6395	-168.266	-65.0402	-67.4904	-206.383	-50.6033	9.3427	-211.623	-54.6233	43.1018	-214.436	-23.8448	28.375	
76	0.633333	-183.212	2.25807	32.4708	-160.177	6.88985	9.55827	-145.699	5.27699	-17.2156	-130.743	6.00271	-36.3963	-193.457	-3.17298	-38.549	-169.488	4.06332	-61.9383	-140.465	5.05855	-61.7606	-194.958	-27.1917	-49.735	-175.736	-25.1501	-73.5663	-143.38	-15.5783	-82.4412	-192.179	-45.4592	-38.2173	-177.098	-47.7619	-67.1977	-152.864	-43.5737	-79.7065	-186.414	-68.7167	-21.7015	-182.763	-72.4224	-44.6547	-167.517	-67.3583	-70.7397	-205.431	-52.8705	13.9676	-210.44	-59.8022	38.6996	-215.106	-24.7695	23.6766	
77	0.641667	-185.098	-2.73875	34.8211	-161.745	2.16974	8.31522	-143.716	6.36544	-16.6218	-130.903	3.3374	-34.394	-196.834	-8.54223	-39.6426	-176.828	1.16197	-65.1902	-146.511	5.5552	-69.7357	-194.788	-27.2355	-48.0711	-174.05	-22.2853	-70.3237	-137.286	-16.9776	-71.5903	-189.599	-48.5878	-39.9997	-173.042	-48.3638	-66.2182	-146.902	-41.6022	-79.2061	-186.795	-67.4942	-22.4451	-181.907	-71.409	-46.818	-168.99	-66.5889	-65.895	-207.595	-56.9858	11.5517	-208.968	-60.4397	41.1447	-215.981	-27.6408	23.9892	
78	0.65	-185.263	0.417293	35.5117	-161.475	1.15649	6.76347	-144.418	3.38405	-15.5924	-131.587	-2.43645	-34.7548	-197.596	-8.53501	-41.1099	-182.824	1.11007	-64.8525	-154.85	6.23845	-72.7079	-191.252	-31.975	-45.3578	-163.469	-21.1772	-67.9755	-131.137	-11.8907	-60.0633	-188.831	-49.3925	-36.6676	-170.814	-49.5529	-64.4437	-146.751	-41.8619	-74.6957	-183.476	-67.4024	-17.9661	-180.438	-70.7402	-47.379	-168.336	-67.7688	-67.3093	-205.236	-54.6038	14.858	-208.308	-59.6129	40.2565	-215.157	-25.0083	26.088	
79	0.658333	-184.648	-2.21378	34.4279	-160.313	1.56095	9.12915	-142.176	5.37828	-15.8686	-129.16	-0.948316	-34.5532	-196.785	-10.365	-38.904	-176.949	-1.68822	-66.016	-153.974	6.41971	-73.0885	-187.327	-30.6059	-46.2258	-163.223	-20.2525	-63.8718	-128.078	-14.8152	-53.5383	-187.114	-47.781	-41.3494	-168.753	-48.2716	-62.5261	-144.191	-39.2533	-73.1576	-184.673	-67.6837	-19.4137	-181.569	-72.5736	-43.2967	-169.001	-67.8849	-65.1795	-204.685	-56.9983	15.0813	-211.302	-58.963	39.5711	-216.95	-26.2756	25.471	
80	0.666667	-184.567	-3.78507	34.3924	-159.226	3.42406	12.1317	-143.556	1.69468	-15.0408	-128.798	-2.4092	-31.5147	-195.023	-10.0785	-42.966	-174.121	-3.22986	-65.6863	-147.727	6.78423	-70.8172	-185.942	-30.3097	-46.064	-158.235	-22.4474	-63.7526	-126.688	-13.4073	-51.7989	-186.794	-47.1275	-37.5472	-171.101	-45.032	-60.9015	-141.241	-36.9487	-73.0104	-184.974	-71.3886	-21.6893	-181.813	-69.1644	-42.4406	-169.082	-69.727	-65.5422	-206.587	-58.8548	9.47884	-210.349	-56.779	41.0368	-216.393	-25.7337	26.6181	
81	0.675	-184.296	0.872672	34.5201	-158.559	2.66539	9.28622	-141.871	3.98903	-15.6513	-126.92	-1.00336	-31.6497	-194.354	-9.95047	-40.7746	-175.386	-5.63334	-64.2422	-145.26	1.17861	-70.2304	-186.28	-27.7132	-46.9468	-159.641	-19.7367	-64.7127	-124.656	-17.273	-53.3358	-185.521	-50.3101	-37.7731	-170.022	-50.0669	-61.572	-140.359	-39.0207	-74.8658	-185.194	-66.8764	-22.4884	-181.986	-70.3341	-44.3975	-166.918	-72.4784	-67.4124	-205.243	-58.9627	12.2004	-208.226	-61.3489	39.9599	-215.069	-26.2957	25.0042	
